<?xml version="1.0" standalone="no"?>
<!DOCTYPE svg PUBLIC "-//W3C//DTD SVG 20010904//EN"
 "http://www.w3.org/TR/2001/REC-SVG-20010904/DTD/svg10.dtd">
<svg version="1.0" xmlns="http://www.w3.org/2000/svg"
 width="500.000000pt" height="500.000000pt" viewBox="0 0 500.000000 500.000000"
 preserveAspectRatio="xMidYMid meet">

<g transform="translate(0.000000,500.000000) scale(0.100000,-0.100000)"
fill="#000000" stroke="none">
<path d="M0 2500 l0 -2500 2500 0 2500 0 0 2500 0 2500 -2500 0 -2500 0 0
-2500z m1247 850 c6 -14 13 -68 14 -120 1 -52 5 -103 9 -113 4 -13 35 -28 96
-48 93 -30 138 -31 127 -3 -8 21 16 35 39 23 27 -14 22 -36 -12 -54 -39 -20
-65 -19 -135 5 -32 11 -71 20 -87 20 l-28 0 0 -183 c0 -172 1 -185 20 -202 27
-25 86 -45 132 -45 20 0 40 -4 43 -10 4 -6 -31 -10 -99 -10 l-104 0 -4 -167
c-1 -93 -7 -174 -11 -180 -11 -18 -577 -19 -595 -1 -17 17 -17 1089 0 1106 9
9 84 12 298 10 l285 -3 12 -25z m1853 -505 l0 -195 -35 0 -35 0 0 195 0 195
35 0 35 0 0 -195z m150 165 c0 -28 -3 -30 -35 -30 -37 0 -52 17 -41 45 3 9 19
15 41 15 32 0 35 -2 35 -30z m204 24 c22 -9 21 -44 -2 -44 -10 0 -23 -5 -30
-12 -7 -7 -12 -20 -12 -30 0 -16 9 -18 69 -18 l70 0 35 -107 34 -107 12 45 c6
24 20 72 31 107 21 62 21 62 60 62 38 0 38 0 28 -27 -6 -16 -31 -81 -55 -146
-72 -193 -90 -217 -161 -217 -39 0 -43 2 -43 24 0 18 7 25 30 29 16 4 37 18
46 32 16 24 14 29 -39 162 -31 76 -56 128 -57 116 0 -19 -6 -23 -30 -23 l-30
0 0 -115 0 -115 -35 0 -35 0 0 115 c0 108 -1 115 -20 115 -15 0 -20 7 -20 25
0 18 5 25 20 25 16 0 20 7 20 33 0 55 60 92 114 71z m-1594 -169 l0 -154 98
-3 97 -3 3 -27 3 -28 -140 0 -141 0 0 185 0 185 40 0 40 0 0 -155z m416 60
c36 -15 73 -76 74 -122 0 -22 -3 -23 -90 -23 -87 0 -90 -1 -90 -23 0 -13 6
-31 13 -41 17 -23 66 -24 83 -1 9 13 20 15 43 10 37 -8 38 -15 8 -43 -53 -50
-152 -48 -194 5 -39 49 -42 147 -7 201 17 26 66 51 102 52 12 0 38 -7 58 -15z
m285 -11 c17 -15 19 -15 25 0 4 10 18 16 40 16 l34 0 0 -137 c0 -76 -5 -155
-11 -176 -14 -52 -56 -77 -132 -77 -52 0 -62 4 -88 30 -17 16 -28 34 -24 40
10 16 72 12 79 -5 3 -9 18 -15 40 -15 40 0 56 20 56 70 l0 31 -26 -20 c-32
-25 -81 -27 -113 -5 -46 33 -65 130 -40 203 23 65 111 89 160 45z m334 12 c46
-20 55 -42 55 -135 0 -70 3 -83 20 -93 11 -7 20 -21 20 -30 0 -27 -74 -25 -93
3 -10 14 -17 17 -22 9 -4 -7 -23 -19 -42 -27 -27 -11 -42 -12 -69 -3 -40 13
-54 35 -54 82 1 59 42 88 126 88 39 0 44 2 44 23 0 46 -49 64 -72 27 -9 -14
-24 -20 -50 -20 -45 0 -47 8 -13 49 35 41 91 51 150 27z m355 -136 l0 -140
-40 0 -40 0 0 140 0 140 40 0 40 0 0 -140z m-1640 -12 c0 -11 -62 -28 -105
-28 -43 0 -105 17 -105 28 0 4 47 7 105 7 58 0 105 -3 105 -7z"/>
<path d="M845 3340 c3 -6 50 -10 106 -10 59 0 99 4 99 10 0 6 -42 10 -106 10
-67 0 -103 -4 -99 -10z"/>
<path d="M660 2830 l0 -470 290 0 290 0 0 125 0 125 -100 0 c-60 0 -100 4
-100 10 0 6 20 10 45 10 25 0 53 4 63 8 9 5 30 15 46 23 41 20 47 52 44 236
l-3 158 -25 3 c-14 1 -52 -6 -84 -18 -71 -24 -114 -25 -144 -4 -27 18 -28 40
-4 53 23 12 45 -1 37 -21 -12 -30 32 -31 118 -3 45 15 87 29 94 30 7 3 12 37
12 104 l1 101 -290 0 -290 0 0 -470z m450 -51 c0 -10 -75 -29 -114 -29 -31 0
-106 23 -106 32 0 2 49 3 110 3 60 0 110 -3 110 -6z"/>
<path d="M910 2305 c0 -36 0 -36 38 -33 34 3 37 6 37 33 0 27 -3 30 -37 33
-38 3 -38 3 -38 -33z m60 0 c0 -18 -5 -25 -19 -25 -11 0 -23 5 -26 10 -11 18
3 40 25 40 15 0 20 -7 20 -25z"/>
<path d="M2187 2872 c-32 -36 -22 -52 32 -52 57 0 65 6 48 41 -16 31 -57 37
-80 11z"/>
<path d="M2490 2870 c-15 -15 -20 -33 -20 -75 0 -42 5 -60 20 -75 45 -45 90
-8 90 75 0 57 -22 95 -55 95 -8 0 -24 -9 -35 -20z"/>
<path d="M2802 2771 c-8 -5 -12 -21 -10 -37 6 -58 88 -32 88 28 0 14 -8 18
-32 18 -18 0 -39 -4 -46 -9z"/>
</g>
</svg>
